<?xml version="1.0" standalone="no"?>
<!DOCTYPE svg PUBLIC "-//W3C//DTD SVG 20010904//EN"
 "http://www.w3.org/TR/2001/REC-SVG-20010904/DTD/svg10.dtd">
<svg version="1.0" xmlns="http://www.w3.org/2000/svg"
 width="325.000000pt" height="356.000000pt" viewBox="0 0 325.000000 356.000000"
 preserveAspectRatio="xMidYMid meet">
<metadata>
Created by potrace 1.16, written by Peter Selinger 2001-2019
</metadata>
<g transform="translate(0.000000,356.000000) scale(0.100000,-0.100000)"
fill="#000000" stroke="none">
<path d="M1525 3287 c-109 -37 -186 -103 -232 -202 -24 -51 -28 -73 -28 -145
0 -72 4 -94 28 -146 36 -77 104 -145 182 -181 51 -23 73 -28 145 -28 72 0 94
5 145 28 78 36 146 104 181 181 24 52 28 74 28 146 0 72 -4 94 -28 146 -56
123 -172 202 -309 210 -44 2 -87 -1 -112 -9z"/>
<path d="M1525 2087 c-109 -37 -186 -103 -232 -202 -24 -51 -28 -73 -28 -145
0 -72 4 -94 28 -146 36 -77 104 -145 182 -181 51 -23 73 -28 145 -28 72 0 94
5 145 28 78 36 146 104 181 181 24 52 28 74 28 146 0 72 -4 94 -28 146 -56
123 -172 202 -309 210 -44 2 -87 -1 -112 -9z"/>
<path d="M1525 887 c-109 -37 -186 -103 -232 -202 -24 -51 -28 -73 -28 -145 0
-72 4 -94 28 -146 36 -77 104 -145 182 -181 86 -40 204 -40 290 0 78 36 146
104 181 181 24 52 28 74 28 146 0 72 -4 94 -28 146 -56 123 -172 202 -309 210
-44 2 -87 -1 -112 -9z"/>
</g>
</svg>
