<?xml version="1.0" standalone="no"?>
<!DOCTYPE svg PUBLIC "-//W3C//DTD SVG 20010904//EN"
 "http://www.w3.org/TR/2001/REC-SVG-20010904/DTD/svg10.dtd">
<svg version="1.0" xmlns="http://www.w3.org/2000/svg"
 width="300.000000pt" height="300.000000pt" viewBox="0 0 300.000000 300.000000"
 preserveAspectRatio="xMidYMid meet">
<metadata>
Created by potrace 1.10, written by Peter Selinger 2001-2011
</metadata>
<g transform="translate(0.000000,300.000000) scale(0.100000,-0.100000)"
fill="#000000" stroke="none">
<path d="M1325 2671 c-523 -87 -927 -498 -997 -1016 -15 -115 -5 -321 21 -425
116 -455 442 -775 903 -887 106 -26 392 -25 503 1 392 93 704 362 847 731 60
153 73 227 73 425 0 138 -4 192 -19 255 -83 352 -309 640 -626 800 -171 86
-290 115 -495 120 -88 2 -182 0 -210 -4z m345 -121 c241 -41 409 -128 581
-299 175 -176 265 -355 304 -606 27 -169 4 -368 -60 -530 -103 -262 -327 -491
-583 -599 -117 -49 -290 -85 -410 -86 -79 0 -231 24 -319 51 -77 23 -221 93
-291 141 -67 45 -207 183 -257 253 -56 77 -128 221 -154 308 -27 88 -51 240
-51 319 1 120 37 293 86 410 103 245 329 472 569 571 91 37 131 48 240 68 132
23 206 23 345 -1z"/>
<path d="M912 1984 c-13 -9 -22 -26 -22 -40 0 -14 50 -118 110 -232 61 -113
110 -211 110 -217 0 -6 -6 -19 -13 -30 -8 -11 -46 -81 -85 -156 -39 -74 -83
-155 -96 -180 -14 -24 -26 -56 -26 -70 0 -26 27 -59 49 -59 7 0 139 48 294
106 155 59 370 139 477 179 294 110 433 165 447 177 17 14 17 63 0 77 -13 10
-126 54 -557 216 -107 40 -298 112 -423 159 -126 47 -232 86 -236 86 -3 0 -17
-7 -29 -16z m256 -188 c145 -57 591 -225 685 -259 48 -17 87 -34 87 -37 0 -3
-141 -58 -312 -123 -172 -64 -366 -137 -431 -162 -65 -25 -121 -45 -123 -45
-2 0 34 74 82 165 l86 165 -87 165 c-47 91 -84 165 -81 165 4 0 45 -15 94 -34z"/>
</g>
</svg>
