<?xml version="1.0" standalone="no"?>
<!DOCTYPE svg PUBLIC "-//W3C//DTD SVG 20010904//EN"
 "http://www.w3.org/TR/2001/REC-SVG-20010904/DTD/svg10.dtd">
<svg version="1.0" xmlns="http://www.w3.org/2000/svg"
 width="300.000000pt" height="300.000000pt" viewBox="0 0 300.000000 300.000000"
 preserveAspectRatio="xMidYMid meet">
<metadata>
Created by potrace 1.10, written by Peter Selinger 2001-2011
</metadata>
<g transform="translate(0.000000,300.000000) scale(0.100000,-0.100000)"
fill="#000000" stroke="none">
<path d="M1325 2669 c-306 -44 -609 -231 -788 -486 -324 -462 -283 -1058 103
-1496 55 -62 226 -190 315 -234 401 -203 875 -170 1228 85 125 91 170 134 254
245 454 602 247 1462 -429 1782 -210 99 -456 137 -683 104z m295 -109 c253
-29 462 -133 643 -320 151 -156 237 -316 283 -525 27 -127 23 -343 -9 -467
-54 -204 -143 -360 -289 -505 -355 -351 -889 -410 -1316 -147 -142 88 -309
270 -384 419 -90 178 -131 402 -109 595 28 249 123 451 295 629 142 146 282
231 472 286 142 41 268 52 414 35z"/>
<path d="M1765 1921 c-82 -38 -292 -133 -465 -211 -442 -200 -533 -242 -547
-253 -22 -16 -16 -65 10 -81 18 -12 195 -69 413 -133 l51 -15 37 -121 c103
-335 107 -347 127 -358 41 -22 69 -3 101 69 16 37 49 110 73 162 23 52 84 187
135 300 51 113 137 303 191 423 55 119 99 226 99 236 0 26 -26 51 -53 51 -12
0 -89 -31 -172 -69z m45 -117 c0 -3 -52 -121 -116 -262 -64 -141 -147 -328
-186 -414 -39 -87 -74 -158 -77 -158 -4 0 -19 42 -35 93 -81 262 -76 248 -109
262 -18 7 -96 32 -174 56 -79 23 -143 46 -143 49 0 4 71 39 158 78 159 71 212
95 497 226 153 71 185 83 185 70z"/>
</g>
</svg>
