<?xml version="1.0" standalone="no"?>
<!DOCTYPE svg PUBLIC "-//W3C//DTD SVG 20010904//EN"
 "http://www.w3.org/TR/2001/REC-SVG-20010904/DTD/svg10.dtd">
<svg version="1.0" xmlns="http://www.w3.org/2000/svg"
 width="300.000000pt" height="300.000000pt" viewBox="0 0 300.000000 300.000000"
 preserveAspectRatio="xMidYMid meet">
<metadata>
Created by potrace 1.10, written by Peter Selinger 2001-2011
</metadata>
<g transform="translate(0.000000,300.000000) scale(0.100000,-0.100000)"
fill="#000000" stroke="none">
<path d="M1340 2674 c-165 -31 -251 -59 -373 -120 -265 -134 -474 -369 -577
-647 -54 -146 -64 -213 -64 -407 0 -194 10 -261 64 -407 117 -318 385 -586
703 -703 146 -54 213 -64 407 -64 161 0 196 3 270 22 462 123 775 443 887 904
26 106 25 392 -1 503 -106 448 -444 790 -886 897 -63 15 -126 21 -245 23 -88
2 -171 1 -185 -1z m385 -132 c204 -43 370 -136 526 -291 174 -175 263 -349
304 -597 19 -114 19 -191 0 -309 -21 -126 -48 -212 -102 -320 -60 -121 -114
-194 -214 -291 -98 -94 -146 -128 -266 -188 -221 -111 -452 -140 -698 -88
-116 25 -207 61 -325 130 -125 73 -283 229 -358 353 -219 365 -210 797 25
1157 48 73 212 237 285 285 252 164 536 219 823 159z"/>
<path d="M1461 2157 c-10 -13 -56 -130 -210 -542 -37 -99 -110 -291 -161 -427
-90 -241 -92 -248 -76 -273 10 -16 26 -25 42 -25 14 0 118 49 232 110 113 61
211 110 217 110 6 0 19 -6 30 -13 11 -8 81 -46 156 -85 74 -39 155 -83 180
-96 24 -14 56 -26 70 -26 26 0 59 27 59 49 0 7 -48 139 -106 294 -59 155 -139
370 -179 477 -110 294 -165 433 -177 447 -14 17 -63 17 -77 0z m162 -529 c64
-172 137 -366 162 -431 25 -65 45 -121 45 -123 0 -2 -74 34 -165 82 l-165 86
-165 -87 c-91 -47 -165 -84 -165 -81 0 4 15 45 34 94 57 145 225 591 259 685
17 48 34 87 37 87 3 0 58 -141 123 -312z"/>
</g>
</svg>
