<?xml version="1.0" standalone="no"?>
<!DOCTYPE svg PUBLIC "-//W3C//DTD SVG 20010904//EN"
 "http://www.w3.org/TR/2001/REC-SVG-20010904/DTD/svg10.dtd">
<svg version="1.0" xmlns="http://www.w3.org/2000/svg"
 width="300.000000pt" height="300.000000pt" viewBox="0 0 300.000000 300.000000"
 preserveAspectRatio="xMidYMid meet">
<metadata>
Created by potrace 1.10, written by Peter Selinger 2001-2011
</metadata>
<g transform="translate(0.000000,300.000000) scale(0.100000,-0.100000)"
fill="#000000" stroke="none">
<path d="M1345 2674 c-421 -61 -782 -340 -939 -724 -78 -190 -105 -437 -72
-640 56 -331 250 -628 530 -807 106 -68 272 -135 411 -165 79 -17 371 -17 450
0 281 61 523 207 691 416 254 317 330 724 208 1114 -100 317 -362 599 -674
727 -140 57 -243 77 -415 80 -88 2 -173 1 -190 -1z m270 -114 c249 -28 451
-126 631 -305 113 -113 148 -159 210 -284 166 -335 143 -732 -62 -1052 -63
-99 -229 -262 -326 -321 -362 -220 -773 -220 -1136 0 -102 61 -272 231 -333
332 -187 310 -216 663 -81 980 60 142 117 226 232 340 239 239 538 347 865
310z"/>
<path d="M1025 1973 c-23 -23 -16 -59 35 -168 40 -83 108 -235 365 -805 116
-258 117 -260 155 -260 20 0 34 7 44 23 13 20 59 161 123 377 l26 85 238 74
c140 44 240 80 244 89 11 30 4 62 -17 76 -13 8 -117 57 -233 109 -193 87 -605
273 -700 317 -22 10 -80 37 -128 59 -97 45 -127 50 -152 24z m602 -356 c222
-100 403 -184 403 -187 0 -3 -73 -27 -163 -54 -92 -27 -169 -56 -178 -66 -8
-10 -37 -90 -65 -179 -27 -88 -51 -161 -54 -161 -3 0 -24 42 -47 93 -23 50
-105 234 -183 407 -78 173 -145 321 -148 329 -7 19 -27 28 435 -182z"/>
</g>
</svg>
