<?xml version="1.0" standalone="no"?>
<!DOCTYPE svg PUBLIC "-//W3C//DTD SVG 20010904//EN"
 "http://www.w3.org/TR/2001/REC-SVG-20010904/DTD/svg10.dtd">
<svg version="1.0" xmlns="http://www.w3.org/2000/svg"
 width="300.000000pt" height="300.000000pt" viewBox="0 0 300.000000 300.000000"
 preserveAspectRatio="xMidYMid meet">
<metadata>
Created by potrace 1.10, written by Peter Selinger 2001-2011
</metadata>
<g transform="translate(0.000000,300.000000) scale(0.100000,-0.100000)"
fill="#000000" stroke="none">
<path d="M1360 2674 c-14 -2 -52 -9 -85 -15 -321 -55 -630 -276 -799 -569
-104 -181 -156 -377 -156 -590 0 -550 361 -1009 905 -1151 79 -21 113 -24 275
-23 202 0 282 14 438 75 290 115 539 361 656 649 78 190 105 437 72 640 -64
377 -298 696 -638 867 -84 42 -187 78 -283 99 -67 15 -332 28 -385 18z m255
-114 c252 -29 452 -126 635 -310 114 -114 172 -197 233 -340 110 -258 110
-560 -1 -820 -60 -142 -117 -226 -232 -340 -186 -187 -385 -282 -646 -311
-315 -33 -619 76 -850 306 -113 113 -148 159 -210 284 -166 335 -143 732 62
1052 63 99 229 262 326 321 220 134 442 185 683 158z"/>
<path d="M1376 2238 c-13 -21 -59 -162 -123 -378 l-26 -85 -238 -74 c-140 -44
-240 -80 -244 -89 -11 -30 -4 -62 18 -76 12 -8 116 -57 232 -109 193 -87 605
-273 700 -317 22 -10 80 -37 128 -59 97 -45 127 -50 152 -24 23 23 16 59 -35
168 -40 83 -108 235 -365 805 -116 258 -117 260 -155 260 -20 0 -34 -7 -44
-22z m101 -300 c23 -51 107 -239 187 -417 80 -179 144 -326 142 -329 -5 -5
-836 371 -836 378 0 3 73 27 163 54 92 27 169 56 178 66 8 10 37 90 65 179 27
88 51 161 54 161 3 0 24 -42 47 -92z"/>
</g>
</svg>
