<?xml version="1.0" standalone="no"?>
<!DOCTYPE svg PUBLIC "-//W3C//DTD SVG 20010904//EN"
 "http://www.w3.org/TR/2001/REC-SVG-20010904/DTD/svg10.dtd">
<svg version="1.0" xmlns="http://www.w3.org/2000/svg"
 width="300.000000pt" height="300.000000pt" viewBox="0 0 300.000000 300.000000"
 preserveAspectRatio="xMidYMid meet">
<metadata>
Created by potrace 1.10, written by Peter Selinger 2001-2011
</metadata>
<g transform="translate(0.000000,300.000000) scale(0.100000,-0.100000)"
fill="#000000" stroke="none">
<path d="M1060 2844 c-150 -23 -274 -73 -425 -170 -54 -35 -187 -162 -213
-203 -8 -14 -30 -48 -47 -76 -68 -107 -125 -259 -141 -375 -10 -74 -6 -312 5
-319 5 -3 11 -24 14 -46 3 -22 13 -58 22 -80 10 -22 17 -40 15 -40 -10 0 63
-148 91 -184 11 -13 19 -28 19 -32 0 -5 8 -17 18 -28 9 -10 37 -40 62 -67 86
-94 200 -182 278 -213 17 -7 32 -17 32 -22 0 -5 7 -9 16 -9 9 0 30 -6 47 -14
34 -16 112 -39 139 -42 9 0 25 -4 35 -8 37 -15 252 -19 317 -6 36 7 69 12 73
13 27 1 214 71 245 92 21 14 40 25 43 25 3 0 19 10 36 22 l29 22 348 -347
c227 -226 355 -347 368 -347 11 0 24 -4 29 -9 19 -19 98 12 142 55 50 50 64
108 40 165 -9 22 -140 161 -351 372 -248 249 -336 342 -332 355 3 9 21 40 40
69 19 28 46 89 62 135 15 46 31 88 34 93 11 15 27 145 30 240 2 62 -18 235
-29 255 -5 9 -12 31 -16 50 -12 57 -84 199 -150 296 -29 44 -204 214 -219 214
-2 0 -34 18 -70 40 -36 22 -67 40 -70 40 -2 0 -21 8 -42 17 -22 9 -43 18 -49
19 -5 2 -41 13 -80 24 -38 11 -86 23 -105 26 -67 10 -216 9 -290 -2z m265
-289 c130 -23 253 -86 348 -180 39 -39 79 -80 87 -90 26 -34 100 -188 100
-210 0 -12 5 -26 10 -31 6 -6 13 -67 16 -135 5 -99 3 -133 -10 -169 -9 -25
-16 -53 -16 -62 0 -42 -118 -248 -142 -248 -5 0 -13 -11 -18 -25 -5 -14 -13
-25 -18 -25 -4 0 -17 -8 -28 -18 -40 -38 -152 -108 -195 -123 -98 -35 -120
-40 -205 -45 -87 -5 -164 3 -252 25 -44 12 -174 77 -214 108 -40 32 -148 146
-163 172 -79 147 -94 196 -102 331 -8 153 6 228 64 349 39 81 60 109 132 181
69 68 104 95 174 130 139 69 283 91 432 65z"/>
</g>
</svg>
