<?xml version="1.0" standalone="no"?>
<!DOCTYPE svg PUBLIC "-//W3C//DTD SVG 20010904//EN"
 "http://www.w3.org/TR/2001/REC-SVG-20010904/DTD/svg10.dtd">
<svg version="1.0" xmlns="http://www.w3.org/2000/svg"
 width="300.000000pt" height="300.000000pt" viewBox="0 0 300.000000 300.000000"
 preserveAspectRatio="xMidYMid meet">
<metadata>
Created by potrace 1.10, written by Peter Selinger 2001-2011
</metadata>
<g transform="translate(0.000000,300.000000) scale(0.100000,-0.100000)"
fill="#000000" stroke="none">
<path d="M1345 2674 c-446 -68 -800 -354 -958 -774 -50 -133 -62 -212 -62
-400 0 -136 4 -193 19 -255 91 -390 362 -704 731 -847 154 -60 228 -73 425
-73 136 0 193 4 255 19 451 106 794 449 901 901 29 123 27 408 -5 525 -94 356
-307 626 -616 782 -176 89 -293 118 -500 123 -88 2 -173 1 -190 -1z m380 -132
c204 -43 370 -136 526 -291 167 -168 260 -346 299 -577 25 -145 25 -200 0
-344 -40 -236 -141 -430 -307 -591 -168 -164 -356 -256 -598 -294 -126 -20
-227 -16 -370 14 -341 71 -639 325 -770 656 -92 233 -92 537 0 770 69 176 216
367 364 476 246 179 555 244 856 181z"/>
<path d="M1017 2092 c-10 -10 -17 -24 -17 -31 0 -7 74 -209 164 -450 324 -859
290 -781 335 -781 16 0 33 6 39 13 6 7 29 62 52 122 23 61 63 166 90 235 26
69 110 290 186 492 135 360 137 367 120 392 -11 17 -26 26 -43 26 -14 0 -118
-49 -231 -110 -113 -60 -209 -110 -213 -110 -3 0 -99 50 -212 110 -113 61
-217 110 -230 110 -13 0 -31 -8 -40 -18z m648 -247 c91 47 165 84 165 81 0 -3
-5 -17 -11 -33 -28 -71 -254 -667 -282 -745 -17 -49 -34 -88 -38 -88 -3 0 -10
15 -16 33 -6 17 -79 212 -162 431 -83 220 -151 401 -151 403 0 2 74 -35 165
-83 l165 -86 165 87z"/>
</g>
</svg>
