<?xml version="1.0" standalone="no"?>
<!DOCTYPE svg PUBLIC "-//W3C//DTD SVG 20010904//EN"
 "http://www.w3.org/TR/2001/REC-SVG-20010904/DTD/svg10.dtd">
<svg version="1.0" xmlns="http://www.w3.org/2000/svg"
 width="300.000000pt" height="300.000000pt" viewBox="0 0 300.000000 300.000000"
 preserveAspectRatio="xMidYMid meet">
<metadata>
Created by potrace 1.10, written by Peter Selinger 2001-2011
</metadata>
<g transform="translate(0.000000,300.000000) scale(0.100000,-0.100000)"
fill="#000000" stroke="none">
<path d="M1360 2674 c-14 -2 -52 -9 -85 -15 -325 -56 -632 -277 -805 -579
-172 -302 -198 -705 -64 -1030 117 -288 366 -534 656 -649 156 -61 236 -75
438 -75 162 -1 196 2 275 23 544 142 905 601 905 1151 0 278 -88 526 -264 746
-165 206 -402 351 -671 410 -67 15 -332 28 -385 18z m255 -114 c249 -28 451
-126 631 -305 189 -187 286 -389 315 -651 25 -239 -43 -507 -182 -710 -55 -82
-227 -245 -311 -296 -362 -220 -773 -220 -1136 0 -102 61 -272 231 -333 332
-128 213 -184 446 -159 667 30 272 122 466 310 653 239 239 538 347 865 310z"/>
<path d="M1536 2238 c-8 -13 -58 -120 -111 -238 -257 -570 -325 -722 -365
-805 -51 -109 -58 -145 -35 -168 24 -25 54 -21 136 17 41 18 103 47 139 63 36
17 155 71 265 121 110 49 227 102 260 117 33 16 134 61 225 102 91 41 175 81
188 89 21 14 28 46 17 76 -4 9 -104 45 -244 89 l-238 74 -26 85 c-64 216 -110
357 -123 378 -10 15 -24 22 -44 22 -20 0 -34 -8 -44 -22z m88 -369 c28 -89 57
-169 65 -179 9 -10 86 -39 178 -66 90 -27 163 -51 163 -54 0 -7 -831 -383
-836 -378 -2 3 62 150 142 329 80 178 164 366 187 417 23 50 44 92 47 92 3 0
27 -73 54 -161z"/>
</g>
</svg>
