<?xml version="1.0" standalone="no"?>
<!DOCTYPE svg PUBLIC "-//W3C//DTD SVG 20010904//EN"
 "http://www.w3.org/TR/2001/REC-SVG-20010904/DTD/svg10.dtd">
<svg version="1.0" xmlns="http://www.w3.org/2000/svg"
 width="300.000000pt" height="300.000000pt" viewBox="0 0 300.000000 300.000000"
 preserveAspectRatio="xMidYMid meet">
<metadata>
Created by potrace 1.10, written by Peter Selinger 2001-2011
</metadata>
<g transform="translate(0.000000,300.000000) scale(0.100000,-0.100000)"
fill="#000000" stroke="none">
<path d="M1340 2674 c-289 -55 -493 -157 -675 -339 -157 -157 -270 -361 -321
-580 -27 -115 -27 -397 0 -510 94 -396 375 -717 749 -855 146 -54 213 -64 407
-64 194 0 261 10 407 64 406 149 707 525 765 955 15 115 5 321 -21 425 -114
447 -428 763 -876 881 -62 16 -117 21 -245 24 -91 2 -176 1 -190 -1z m315
-119 c126 -21 212 -48 320 -102 121 -60 194 -114 291 -214 94 -98 128 -146
188 -266 53 -106 80 -192 101 -318 19 -118 19 -195 0 -309 -26 -162 -62 -259
-147 -403 -69 -118 -229 -279 -349 -351 -365 -219 -797 -210 -1157 25 -73 48
-237 212 -285 285 -92 141 -145 280 -172 453 -27 169 -4 368 60 530 103 262
327 491 583 599 182 76 379 101 567 71z"/>
<path d="M1855 1929 c-99 -38 -265 -101 -370 -141 -457 -173 -630 -240 -642
-250 -17 -14 -17 -62 0 -77 13 -10 130 -56 542 -210 99 -37 291 -110 427 -161
241 -90 248 -92 273 -76 16 10 25 26 25 42 0 14 -49 118 -110 232 -60 113
-110 211 -110 217 0 6 6 19 13 30 8 11 46 81 85 156 39 74 83 155 96 180 14
24 26 56 26 70 0 30 -28 60 -56 58 -10 -1 -100 -32 -199 -70z m-11 -264 l-86
-165 87 -165 c47 -91 84 -165 81 -165 -4 0 -45 15 -94 34 -145 57 -591 225
-684 259 -49 17 -88 34 -88 37 0 3 141 58 313 123 171 64 364 137 427 161 63
25 118 45 123 45 4 1 -31 -73 -79 -164z"/>
</g>
</svg>
